<?xml version="1.0" encoding="UTF-8" standalone="no"?>
<!-- Created with Inkscape (http://www.inkscape.org/) -->
<svg
   xmlns:dc="http://purl.org/dc/elements/1.1/"
   xmlns:cc="http://creativecommons.org/ns#"
   xmlns:rdf="http://www.w3.org/1999/02/22-rdf-syntax-ns#"
   xmlns:svg="http://www.w3.org/2000/svg"
   xmlns="http://www.w3.org/2000/svg"
   xmlns:sodipodi="http://sodipodi.sourceforge.net/DTD/sodipodi-0.dtd"
   xmlns:inkscape="http://www.inkscape.org/namespaces/inkscape"
   width="40.000004"
   height="40"
   id="svg2"
   sodipodi:version="0.32"
   inkscape:version="0.46"
   version="1.0"
   sodipodi:docname="osni_rovina-ver.svg"
   inkscape:output_extension="org.inkscape.output.svg.inkscape">
  <defs
     id="defs4">
    <inkscape:perspective
       sodipodi:type="inkscape:persp3d"
       inkscape:vp_x="0 : 526.18109 : 1"
       inkscape:vp_y="0 : 1000 : 0"
       inkscape:vp_z="744.09448 : 526.18109 : 1"
       inkscape:persp3d-origin="372.04724 : 350.78739 : 1"
       id="perspective10" />
  </defs>
  <sodipodi:namedview
     id="base"
     pagecolor="#ffffff"
     bordercolor="#666666"
     borderopacity="1.0"
     gridtolerance="10000"
     guidetolerance="10"
     objecttolerance="10"
     inkscape:pageopacity="0.0"
     inkscape:pageshadow="2"
     inkscape:zoom="11.55"
     inkscape:cx="28.611956"
     inkscape:cy="20"
     inkscape:document-units="px"
     inkscape:current-layer="layer1"
     showgrid="false"
     units="px"
     showguides="true"
     inkscape:guide-bbox="true"
     inkscape:window-width="1015"
     inkscape:window-height="667"
     inkscape:window-x="66"
     inkscape:window-y="87"
     inkscape:showpageshadow="true"
     showborder="true"
     borderlayer="false"
     inkscape:snap-global="true" />
  <metadata
     id="metadata7">
    <rdf:RDF>
      <cc:Work
         rdf:about="">
        <dc:format>image/svg+xml</dc:format>
        <dc:type
           rdf:resource="http://purl.org/dc/dcmitype/StillImage" />
      </cc:Work>
    </rdf:RDF>
  </metadata>
  <g
     inkscape:label="Layer 1"
     inkscape:groupmode="layer"
     id="layer1"
     transform="translate(19.999999,-5.4330722)">
    <path
       style="fill:#000000;fill-opacity:1;stroke:none;stroke-width:0.094;stroke-miterlimit:4;stroke-dasharray:none;stroke-opacity:1"
       d="M 3.906251,25.933073 L 15.000001,25.933073 L 15.000001,24.933073 L 3.906251,24.933073 C 3.928379,25.10329 4.000001,25.256858 4.000001,25.433073 C 4.000001,25.609288 3.928379,25.762856 3.906251,25.933073 z"
       id="path2388" />
    <path
       style="fill:#000000;fill-opacity:1;stroke:none;stroke-width:0.094;stroke-miterlimit:4;stroke-dasharray:none;stroke-opacity:1"
       d="M -3.906249,24.933073 L -14.999999,24.933073 L -14.999999,25.933073 L -3.906249,25.933073 C -3.928377,25.762856 -3.999999,25.609288 -3.999999,25.433073 C -3.999999,25.256858 -3.928377,25.10329 -3.906249,24.933073 z"
       id="path2384" />
    <path
       style="fill:#000000;fill-opacity:1;stroke:none;stroke-width:0.094;stroke-miterlimit:4;stroke-dasharray:none;stroke-opacity:1"
       d="M 1.0536743e-06,21.433072 C -2.2079991,21.433072 -3.9999991,23.225072 -3.9999991,25.433072 C -3.9999991,27.641072 -2.2079991,29.433072 1.0536743e-06,29.433072 C 2.2080011,29.433072 4.0000011,27.641072 4.0000011,25.433072 C 4.0000011,23.225072 2.2080011,21.433072 1.0536743e-06,21.433072 z M 1.0536743e-06,22.433072 C 1.6560011,22.433072 3.0000011,23.777072 3.0000011,25.433072 C 3.0000011,27.089072 1.6560011,28.433072 1.0536743e-06,28.433072 C -1.6559991,28.433072 -2.9999991,27.089072 -2.9999991,25.433072 C -2.9999991,23.777072 -1.6559991,22.433072 1.0536743e-06,22.433072 z"
       id="path2682" />
  </g>
</svg>
