<?xml version="1.0" encoding="UTF-8" standalone="no"?>
<!-- Created with Inkscape (http://www.inkscape.org/) -->
<svg
   xmlns:dc="http://purl.org/dc/elements/1.1/"
   xmlns:cc="http://creativecommons.org/ns#"
   xmlns:rdf="http://www.w3.org/1999/02/22-rdf-syntax-ns#"
   xmlns:svg="http://www.w3.org/2000/svg"
   xmlns="http://www.w3.org/2000/svg"
   xmlns:sodipodi="http://sodipodi.sourceforge.net/DTD/sodipodi-0.dtd"
   xmlns:inkscape="http://www.inkscape.org/namespaces/inkscape"
   width="40.000004"
   height="40"
   id="svg2"
   sodipodi:version="0.32"
   inkscape:version="0.46"
   version="1.0"
   sodipodi:docname="osni_rovina-hor.svg"
   inkscape:output_extension="org.inkscape.output.svg.inkscape">
  <defs
     id="defs4">
    <inkscape:perspective
       sodipodi:type="inkscape:persp3d"
       inkscape:vp_x="0 : 526.18109 : 1"
       inkscape:vp_y="0 : 1000 : 0"
       inkscape:vp_z="744.09448 : 526.18109 : 1"
       inkscape:persp3d-origin="372.04724 : 350.78739 : 1"
       id="perspective10" />
  </defs>
  <sodipodi:namedview
     id="base"
     pagecolor="#ffffff"
     bordercolor="#666666"
     borderopacity="1.0"
     gridtolerance="10000"
     guidetolerance="10"
     objecttolerance="10"
     inkscape:pageopacity="0.0"
     inkscape:pageshadow="2"
     inkscape:zoom="11.55"
     inkscape:cx="24.220722"
     inkscape:cy="20.083075"
     inkscape:document-units="px"
     inkscape:current-layer="layer1"
     showgrid="false"
     units="px"
     showguides="true"
     inkscape:guide-bbox="true"
     inkscape:window-width="1015"
     inkscape:window-height="667"
     inkscape:window-x="66"
     inkscape:window-y="87"
     inkscape:showpageshadow="true"
     showborder="true"
     borderlayer="false">
    <sodipodi:guide
       orientation="0,1"
       position="2.6108204,20"
       id="guide2383" />
    <sodipodi:guide
       orientation="1,0"
       position="20,2.9668414"
       id="guide2413" />
  </sodipodi:namedview>
  <metadata
     id="metadata7">
    <rdf:RDF>
      <cc:Work
         rdf:about="">
        <dc:format>image/svg+xml</dc:format>
        <dc:type
           rdf:resource="http://purl.org/dc/dcmitype/StillImage" />
      </cc:Work>
    </rdf:RDF>
  </metadata>
  <g
     inkscape:label="Layer 1"
     inkscape:groupmode="layer"
     id="layer1"
     transform="translate(19.999999,-5.4330722)">
    <path
       style="fill:#000000;fill-opacity:1"
       d="M 23.90625 20.5 L 30 20.5 L 30 19.5 L 23.90625 19.5 C 23.928378 19.670217 24 19.823785 24 20 C 24 20.176215 23.928378 20.329783 23.90625 20.5 z "
       id="path2399"
       transform="translate(-19.999999,5.4330722)" />
    <path
       style="fill:#000000;fill-opacity:1"
       d="M 16.09375 19.5 L 10 19.5 L 10 20.5 L 16.09375 20.5 C 16.071622 20.329783 16 20.176215 16 20 C 16 19.823785 16.071622 19.670217 16.09375 19.5 z "
       id="path2395"
       transform="translate(-19.999999,5.4330722)" />
    <path
       style="fill:#000000;fill-opacity:1;stroke:none;stroke-width:0.1;stroke-miterlimit:4;stroke-dasharray:none;stroke-opacity:1"
       d="M 20.5 23.90625 C 20.329783 23.928378 20.176215 24 20 24 C 19.823785 24 19.670217 23.928378 19.5 23.90625 L 19.5 30 L 20.5 30 L 20.5 23.90625 z "
       id="path2391"
       transform="translate(-19.999999,5.4330722)" />
    <path
       style="fill:#000000;fill-opacity:1;stroke:none;stroke-width:0.1;stroke-miterlimit:4;stroke-dasharray:none;stroke-opacity:1"
       d="M 19.5 10 L 19.5 16.09375 C 19.670217 16.071622 19.823785 16 20 16 C 20.176215 16 20.329783 16.071622 20.5 16.09375 L 20.5 10 L 19.5 10 z "
       id="rect3217"
       transform="translate(-19.999999,5.4330722)" />
    <path
       style="fill:#000000;fill-opacity:1;stroke:none;stroke-width:0.09400000000000000;stroke-miterlimit:4;stroke-dasharray:none;stroke-opacity:1"
       d="M 7.0367432e-07,21.433073 C -2.2079993,21.433073 -3.9999993,23.225073 -3.9999993,25.433073 C -3.9999993,27.641073 -2.2079993,29.433073 7.0367432e-07,29.433073 C 2.2080012,29.433073 4.0000012,27.641073 4.0000012,25.433073 C 4.0000012,23.225073 2.2080012,21.433073 7.0367432e-07,21.433073 z M 7.0367432e-07,22.433073 C 1.6560012,22.433073 3.0000012,23.777073 3.0000012,25.433073 C 3.0000012,27.089073 1.6560012,28.433073 7.0367432e-07,28.433073 C -1.6559993,28.433073 -2.9999993,27.089073 -2.9999993,25.433073 C -2.9999993,23.777073 -1.6559993,22.433073 7.0367432e-07,22.433073 z"
       id="path2682" />
  </g>
</svg>
