<?xml version="1.0" encoding="UTF-8" standalone="no"?>
<!-- Created with Inkscape (http://www.inkscape.org/) -->
<svg
   xmlns:dc="http://purl.org/dc/elements/1.1/"
   xmlns:cc="http://creativecommons.org/ns#"
   xmlns:rdf="http://www.w3.org/1999/02/22-rdf-syntax-ns#"
   xmlns:svg="http://www.w3.org/2000/svg"
   xmlns="http://www.w3.org/2000/svg"
   xmlns:sodipodi="http://sodipodi.sourceforge.net/DTD/sodipodi-0.dtd"
   xmlns:inkscape="http://www.inkscape.org/namespaces/inkscape"
   width="40.000004"
   height="40"
   id="svg2"
   sodipodi:version="0.32"
   inkscape:version="0.46"
   version="1.0"
   sodipodi:docname="osni_rovina_osa-hor.svg"
   inkscape:output_extension="org.inkscape.output.svg.inkscape">
  <defs
     id="defs4">
    <inkscape:perspective
       sodipodi:type="inkscape:persp3d"
       inkscape:vp_x="0 : 526.18109 : 1"
       inkscape:vp_y="0 : 1000 : 0"
       inkscape:vp_z="744.09448 : 526.18109 : 1"
       inkscape:persp3d-origin="372.04724 : 350.78739 : 1"
       id="perspective10" />
  </defs>
  <sodipodi:namedview
     id="base"
     pagecolor="#ffffff"
     bordercolor="#666666"
     borderopacity="1.0"
     gridtolerance="10000"
     guidetolerance="10"
     objecttolerance="10"
     inkscape:pageopacity="0.0"
     inkscape:pageshadow="2"
     inkscape:zoom="11.55"
     inkscape:cx="13.816157"
     inkscape:cy="18.019348"
     inkscape:document-units="px"
     inkscape:current-layer="layer1"
     showgrid="false"
     units="px"
     showguides="true"
     inkscape:guide-bbox="true"
     inkscape:window-width="1015"
     inkscape:window-height="667"
     inkscape:window-x="66"
     inkscape:window-y="87"
     inkscape:showpageshadow="true"
     showborder="true"
     borderlayer="false"
     inkscape:snap-global="true" />
  <metadata
     id="metadata7">
    <rdf:RDF>
      <cc:Work
         rdf:about="">
        <dc:format>image/svg+xml</dc:format>
        <dc:type
           rdf:resource="http://purl.org/dc/dcmitype/StillImage" />
      </cc:Work>
    </rdf:RDF>
  </metadata>
  <g
     inkscape:label="Layer 1"
     inkscape:groupmode="layer"
     id="layer1"
     transform="translate(19.999999,-5.4330722)">
    <path
       style="fill:#000000;fill-opacity:1;stroke:none;stroke-width:0.094;stroke-miterlimit:4;stroke-dasharray:none;stroke-opacity:1"
       d="M 1e-06,21.433071 C -2.031784,21.433071 -3.65111,22.970452 -3.906249,24.933071 L -14.999999,24.933071 L -14.999999,25.933071 L 15.000001,25.933071 L 15.000001,24.933071 L 3.906251,24.933071 C 3.651112,22.970452 2.031785,21.433071 1e-06,21.433071 z M 1e-06,22.433071 C 1.459412,22.433072 2.512849,23.55176 2.781251,24.933071 L -2.781249,24.933071 C -2.512847,23.55176 -1.45941,22.433071 1e-06,22.433071 z"
       id="rect3415" />
    <path
       style="fill:#000000;fill-opacity:1;stroke:none;stroke-width:0.094;stroke-miterlimit:4;stroke-dasharray:none;stroke-opacity:1"
       d="M -15.999999,25.425502 L -13.388776,26.940944 L -10.777552,28.433072 L -10.777552,27.570435 L -12.642712,26.497968 L -14.507872,25.425502 L -12.642712,24.353035 L -10.777552,23.280568 L -10.777552,22.417931 L -13.388776,23.910059 L -15.999999,25.425502 z"
       id="path6668" />
    <path
       style="fill:#000000;fill-opacity:1;stroke:none;stroke-width:0.094;stroke-miterlimit:4;stroke-dasharray:none;stroke-opacity:1"
       d="M 16.222448,25.425502 L 13.611225,26.940944 L 11.000001,28.433072 L 11.000001,27.570435 L 12.865161,26.497968 L 14.730321,25.425502 L 12.865161,24.353035 L 11.000001,23.280568 L 11.000001,22.417931 L 13.611225,23.910059 L 16.222448,25.425502 z"
       id="path2622" />
  </g>
</svg>
