<?xml version="1.0" encoding="UTF-8" standalone="no"?>
<!-- Created with Inkscape (http://www.inkscape.org/) -->
<svg
   xmlns:dc="http://purl.org/dc/elements/1.1/"
   xmlns:cc="http://creativecommons.org/ns#"
   xmlns:rdf="http://www.w3.org/1999/02/22-rdf-syntax-ns#"
   xmlns:svg="http://www.w3.org/2000/svg"
   xmlns="http://www.w3.org/2000/svg"
   xmlns:sodipodi="http://sodipodi.sourceforge.net/DTD/sodipodi-0.dtd"
   xmlns:inkscape="http://www.inkscape.org/namespaces/inkscape"
   width="40.000004"
   height="40"
   id="svg2"
   sodipodi:version="0.32"
   inkscape:version="0.46"
   version="1.0"
   sodipodi:docname="vrasova_osa.svg"
   inkscape:output_extension="org.inkscape.output.svg.inkscape">
  <defs
     id="defs4">
    <inkscape:perspective
       sodipodi:type="inkscape:persp3d"
       inkscape:vp_x="0 : 526.18109 : 1"
       inkscape:vp_y="0 : 1000 : 0"
       inkscape:vp_z="744.09448 : 526.18109 : 1"
       inkscape:persp3d-origin="372.04724 : 350.78739 : 1"
       id="perspective10" />
  </defs>
  <sodipodi:namedview
     id="base"
     pagecolor="#ffffff"
     bordercolor="#666666"
     borderopacity="1.0"
     gridtolerance="10000"
     guidetolerance="10"
     objecttolerance="10"
     inkscape:pageopacity="0.0"
     inkscape:pageshadow="2"
     inkscape:zoom="11.55"
     inkscape:cx="16.760845"
     inkscape:cy="19.408274"
     inkscape:document-units="px"
     inkscape:current-layer="layer1"
     showgrid="false"
     units="px"
     showguides="true"
     inkscape:guide-bbox="true"
     inkscape:window-width="1015"
     inkscape:window-height="667"
     inkscape:window-x="66"
     inkscape:window-y="87"
     inkscape:showpageshadow="true"
     showborder="true"
     borderlayer="false"
     inkscape:snap-global="true" />
  <metadata
     id="metadata7">
    <rdf:RDF>
      <cc:Work
         rdf:about="">
        <dc:format>image/svg+xml</dc:format>
        <dc:type
           rdf:resource="http://purl.org/dc/dcmitype/StillImage" />
      </cc:Work>
    </rdf:RDF>
  </metadata>
  <g
     inkscape:label="Layer 1"
     inkscape:groupmode="layer"
     id="layer1"
     transform="translate(19.999999,-5.4330722)">
    <path
       style="fill:#000000;fill-opacity:1;stroke:none;stroke-width:0.094;stroke-miterlimit:4;stroke-dasharray:none;stroke-opacity:1"
       d="M 0.500001,29.339322 C 0.329784,29.36145 0.176216,29.433072 1e-06,29.433072 C -0.176214,29.433072 -0.329782,29.36145 -0.499999,29.339322 L -0.499999,40.433072 L 0.500001,40.433072 L 0.500001,29.339322 z"
       id="path2392" />
    <path
       style="fill:#000000;fill-opacity:1;stroke:none;stroke-width:0.094;stroke-miterlimit:4;stroke-dasharray:none;stroke-opacity:1"
       d="M -0.499999,10.433072 L -0.499999,21.526822 C -0.329782,21.504694 -0.176214,21.433072 1e-06,21.433072 C 0.176216,21.433072 0.329784,21.504694 0.500001,21.526822 L 0.500001,10.433072 L -0.499999,10.433072 z"
       id="rect3415" />
    <path
       style="fill:#000000;fill-opacity:1;stroke:none;stroke-width:0.094;stroke-miterlimit:4;stroke-dasharray:none;stroke-opacity:1"
       d="M 1e-06,8.433074 L -2.031249,11.933073 L -4.031249,15.433073 L -2.874999,15.433073 L -1.437499,12.933073 L 1e-06,10.433073 L 1.437501,12.933073 L 2.875001,15.433073 L 4.031251,15.433073 L 2.031251,11.933073 L 1e-06,8.433074 z"
       id="path6668" />
    <path
       style="fill:#000000;fill-opacity:1;stroke:none;stroke-width:0.094;stroke-miterlimit:4;stroke-dasharray:none;stroke-opacity:1"
       d="M 9.8347664e-07,21.433071 C -2.207999,21.433071 -3.999999,23.225071 -3.999999,25.433071 C -3.999999,27.641071 -2.207999,29.433071 9.8347664e-07,29.433071 C 2.208001,29.433071 4.000001,27.641071 4.000001,25.433071 C 4.000001,23.225071 2.208001,21.433071 9.8347664e-07,21.433071 z M 9.8347664e-07,22.433071 C 1.656001,22.433071 3.000001,23.777071 3.000001,25.433071 C 3.000001,27.089071 1.656001,28.433071 9.8347664e-07,28.433071 C -1.655999,28.433071 -2.999999,27.089071 -2.999999,25.433071 C -2.999999,23.777071 -1.655999,22.433071 9.8347664e-07,22.433071 z"
       id="path2682" />
  </g>
</svg>
